<svg width="1920" height="206" viewBox="0 0 1920 206" fill="none" xmlns="http://www.w3.org/2000/svg">
<rect width="1920" height="205.74" fill="white"/>
<path d="M150.34 46.31H158.4V47.18H154.99V48.82H153.87V47.18H150.34V46.31ZM151.31 47.99H152.42V49.74H157.51V50.63H151.31V47.99ZM154.36 42.09C156.27 42.09 157.53 42.8 157.53 43.92C157.53 45.04 156.27 45.74 154.36 45.74C152.46 45.74 151.19 45.04 151.19 43.92C151.19 42.8 152.46 42.09 154.36 42.09ZM154.36 42.97C153.15 42.97 152.37 43.31 152.37 43.92C152.37 44.52 153.15 44.86 154.36 44.86C155.57 44.86 156.35 44.52 156.35 43.92C156.35 43.31 155.57 42.97 154.36 42.97ZM161.52 42.4C162.24 42.4 162.86 42.67 163.28 43.12H165.37V41.91H166.47V47.14H165.37V46.01H163.27C162.85 46.45 162.23 46.71 161.52 46.71C160.19 46.71 159.19 45.81 159.19 44.56C159.19 43.3 160.19 42.4 161.52 42.4ZM161.52 43.33C160.78 43.33 160.23 43.8 160.23 44.56C160.23 45.3 160.78 45.78 161.52 45.78C162.26 45.78 162.79 45.3 162.79 44.56C162.79 43.8 162.26 43.33 161.52 43.33ZM163.49 47.33C165.34 47.33 166.5 47.97 166.5 49.07C166.5 50.16 165.34 50.8 163.49 50.8C161.63 50.8 160.47 50.16 160.47 49.07C160.47 47.97 161.63 47.33 163.49 47.33ZM163.49 48.18C162.25 48.18 161.55 48.49 161.55 49.07C161.55 49.64 162.25 49.95 163.49 49.95C164.73 49.95 165.42 49.64 165.42 49.07C165.42 48.49 164.73 48.18 163.49 48.18ZM163.77 45.12H165.37V44H163.77C163.82 44.18 163.84 44.36 163.84 44.56C163.84 44.76 163.82 44.94 163.77 45.12ZM172.345 42.63H173.455V44.03C173.455 45.67 174.295 47.31 175.725 47.94L175.085 48.83C174.055 48.35 173.315 47.4 172.915 46.24C172.515 47.49 171.755 48.51 170.685 49.02L170.025 48.11C171.485 47.46 172.345 45.75 172.345 44.03V42.63ZM176.355 41.89H177.455V50.82H176.355V41.89ZM184.725 41.91H185.825V44.47H187.065V45.37H185.825V48.32H184.725V41.91ZM183.435 42.58C183.435 44.95 181.905 46.63 179.285 47.4L178.825 46.53C180.845 45.94 182.065 44.83 182.245 43.46H179.205V42.58H183.435ZM180.155 47.67H181.255V49.75H186.165V50.63H180.155V47.67ZM191.06 44.1C191.41 44.1 191.65 44.35 191.65 44.69C191.65 45.04 191.41 45.29 191.06 45.29C190.72 45.29 190.47 45.04 190.47 44.69C190.47 44.35 190.72 44.1 191.06 44.1ZM191.06 47.46C191.41 47.46 191.65 47.71 191.65 48.05C191.65 48.4 191.41 48.65 191.06 48.65C190.72 48.65 190.47 48.4 190.47 48.05C190.47 47.71 190.72 47.46 191.06 47.46ZM200.284 43.4H201.474V41.91H202.574V47.37H201.474V45.92H200.294L200.354 46.66C198.674 46.94 196.724 46.96 195.304 46.96L195.194 46.06H196.184V43.41H195.424V42.52H200.114V43.41H199.334V45.94L200.284 45.85V45.03H201.474V44.27H200.284V43.4ZM199.604 47.52C201.474 47.52 202.614 48.12 202.614 49.16C202.614 50.2 201.474 50.8 199.604 50.8C197.724 50.8 196.584 50.2 196.584 49.16C196.584 48.12 197.724 47.52 199.604 47.52ZM199.604 48.36C198.354 48.36 197.674 48.64 197.674 49.16C197.674 49.68 198.354 49.97 199.604 49.97C200.834 49.97 201.524 49.68 201.524 49.16C201.524 48.64 200.834 48.36 199.604 48.36ZM197.254 46.04L198.284 46V43.41H197.254V46.04ZM206.424 42.19C207.774 42.19 208.784 43.02 208.784 44.2C208.784 45.38 207.774 46.2 206.424 46.2C205.084 46.2 204.084 45.38 204.084 44.2C204.084 43.02 205.084 42.19 206.424 42.19ZM206.424 43.08C205.694 43.08 205.144 43.51 205.144 44.2C205.144 44.89 205.694 45.31 206.424 45.31C207.174 45.31 207.714 44.89 207.714 44.2C207.714 43.51 207.174 43.08 206.424 43.08ZM210.184 41.91H211.284V46.4H210.184V41.91ZM205.424 46.79H211.284V49.12H206.514V49.84H211.534V50.7H205.444V48.32H210.194V47.64H205.424V46.79ZM217.839 42.76V50.03L216.779 50.02V43.89L215.499 44.6L215.059 43.71L216.789 42.76H217.839ZM222.038 49.16C223.038 49.16 223.708 48.04 223.708 46.39C223.708 44.73 223.038 43.61 222.038 43.61C221.038 43.61 220.358 44.73 220.358 46.39C220.358 48.04 221.038 49.16 222.038 49.16ZM222.038 50.1C220.428 50.1 219.298 48.56 219.298 46.39C219.298 44.21 220.428 42.68 222.038 42.68C223.638 42.68 224.768 44.21 224.768 46.39C224.768 48.56 223.638 50.1 222.038 50.1ZM226.744 44.1C227.094 44.1 227.334 44.35 227.334 44.69C227.334 45.04 227.094 45.29 226.744 45.29C226.404 45.29 226.154 45.04 226.154 44.69C226.154 44.35 226.404 44.1 226.744 44.1ZM226.744 47.46C227.094 47.46 227.334 47.71 227.334 48.05C227.334 48.4 227.094 48.65 226.744 48.65C226.404 48.65 226.154 48.4 226.154 48.05C226.154 47.71 226.404 47.46 226.744 47.46ZM231.452 49.16C232.452 49.16 233.122 48.04 233.122 46.39C233.122 44.73 232.452 43.61 231.452 43.61C230.452 43.61 229.772 44.73 229.772 46.39C229.772 48.04 230.452 49.16 231.452 49.16ZM231.452 50.1C229.842 50.1 228.712 48.56 228.712 46.39C228.712 44.21 229.842 42.68 231.452 42.68C233.052 42.68 234.182 44.21 234.182 46.39C234.182 48.56 233.052 50.1 231.452 50.1ZM237.888 49.16C238.888 49.16 239.558 48.04 239.558 46.39C239.558 44.73 238.888 43.61 237.888 43.61C236.888 43.61 236.208 44.73 236.208 46.39C236.208 48.04 236.888 49.16 237.888 49.16ZM237.888 50.1C236.278 50.1 235.148 48.56 235.148 46.39C235.148 44.21 236.278 42.68 237.888 42.68C239.488 42.68 240.618 44.21 240.618 46.39C240.618 48.56 239.488 50.1 237.888 50.1ZM244.108 46.33C244.418 45.57 245.178 45.06 245.948 45.1C246.258 45.13 246.678 45.27 246.958 45.45L247.798 45.97C247.958 46.07 248.168 46.15 248.288 46.15C248.608 46.17 248.938 45.93 249.078 45.56L250.108 45.96C249.798 46.76 249.018 47.3 248.218 47.25C247.938 47.23 247.528 47.1 247.228 46.91L246.368 46.38C246.218 46.29 246.018 46.21 245.878 46.2C245.578 46.19 245.258 46.42 245.128 46.75L244.108 46.33ZM256.354 42.76V50.03L255.294 50.02V43.89L254.014 44.6L253.574 43.71L255.304 42.76H256.354ZM259.634 50.05H258.474L261.324 43.65L257.984 43.66V42.72H262.384L262.484 43.65L259.634 50.05ZM264.478 44.1C264.828 44.1 265.068 44.35 265.068 44.69C265.068 45.04 264.828 45.29 264.478 45.29C264.138 45.29 263.888 45.04 263.888 44.69C263.888 44.35 264.138 44.1 264.478 44.1ZM264.478 47.46C264.828 47.46 265.068 47.71 265.068 48.05C265.068 48.4 264.828 48.65 264.478 48.65C264.138 48.65 263.888 48.4 263.888 48.05C263.888 47.71 264.138 47.46 264.478 47.46ZM269.187 49.16C270.187 49.16 270.857 48.04 270.857 46.39C270.857 44.73 270.187 43.61 269.187 43.61C268.187 43.61 267.507 44.73 267.507 46.39C267.507 48.04 268.187 49.16 269.187 49.16ZM269.187 50.1C267.577 50.1 266.447 48.56 266.447 46.39C266.447 44.21 267.577 42.68 269.187 42.68C270.787 42.68 271.917 44.21 271.917 46.39C271.917 48.56 270.787 50.1 269.187 50.1ZM275.622 49.16C276.622 49.16 277.292 48.04 277.292 46.39C277.292 44.73 276.622 43.61 275.622 43.61C274.622 43.61 273.942 44.73 273.942 46.39C273.942 48.04 274.622 49.16 275.622 49.16ZM275.622 50.1C274.012 50.1 272.882 48.56 272.882 46.39C272.882 44.21 274.012 42.68 275.622 42.68C277.222 42.68 278.352 44.21 278.352 46.39C278.352 48.56 277.222 50.1 275.622 50.1ZM282.183 46.39C282.183 45.09 282.693 43.38 283.413 42.24H284.533C283.713 43.37 283.143 45.08 283.143 46.39C283.143 47.7 283.713 49.41 284.533 50.54H283.413C282.693 49.4 282.183 47.69 282.183 46.39ZM290.296 44.02H291.806V41.91H292.906V47.07H291.806V44.92H290.296V44.02ZM287.036 47.46H292.906V50.7H287.036V47.46ZM291.836 48.32H288.116V49.83H291.836V48.32ZM285.806 42.4H290.586V43.28H288.756V43.35C288.756 44.44 289.466 45.54 290.836 46L290.286 46.87C289.306 46.53 288.616 45.85 288.226 45C287.846 45.94 287.106 46.69 286.056 47.06L285.496 46.18C286.906 45.71 287.646 44.54 287.646 43.36V43.28H285.806V42.4ZM300.506 41.91H301.606V46.95H300.506V41.91ZM295.756 47.39H301.606V50.7H295.756V47.39ZM300.536 48.26H296.826V49.83H300.536V48.26ZM296.426 42.24H297.536V43.09C297.536 44.24 298.286 45.31 299.686 45.75L299.156 46.6C298.126 46.28 297.396 45.62 296.996 44.76C296.596 45.68 295.846 46.41 294.786 46.76L294.256 45.9C295.686 45.44 296.426 44.27 296.426 43.09V42.24ZM305.226 42.63H306.336V44.03C306.336 45.67 307.176 47.31 308.606 47.94L307.966 48.83C306.936 48.35 306.196 47.4 305.796 46.24C305.396 47.49 304.636 48.51 303.566 49.02L302.906 48.11C304.366 47.46 305.226 45.75 305.226 44.03V42.63ZM309.236 41.89H310.336V50.82H309.236V41.89ZM317.606 41.91H318.706V44.47H319.946V45.37H318.706V48.32H317.606V41.91ZM316.316 42.58C316.316 44.95 314.786 46.63 312.166 47.4L311.706 46.53C313.726 45.94 314.946 44.83 315.126 43.46H312.086V42.58H316.316ZM313.036 47.67H314.136V49.75H319.046V50.63H313.036V47.67ZM325.651 42.76V50.03L324.591 50.02V43.89L323.311 44.6L322.871 43.71L324.601 42.76H325.651ZM327.271 49.1C328.731 47.7 330.721 46.28 330.721 45.05C330.721 44.23 330.201 43.65 329.461 43.65C328.891 43.65 328.321 44.06 328.061 44.65L327.131 44.24C327.531 43.32 328.501 42.68 329.461 42.68C330.831 42.68 331.781 43.66 331.781 45.05C331.781 46.58 330.121 47.94 328.771 49.1H331.901V50.03H327.371L327.271 49.1ZM333.883 44.1C334.233 44.1 334.473 44.35 334.473 44.69C334.473 45.04 334.233 45.29 333.883 45.29C333.543 45.29 333.293 45.04 333.293 44.69C333.293 44.35 333.543 44.1 333.883 44.1ZM333.883 47.46C334.233 47.46 334.473 47.71 334.473 48.05C334.473 48.4 334.233 48.65 333.883 48.65C333.543 48.65 333.293 48.4 333.293 48.05C333.293 47.71 333.543 47.46 333.883 47.46ZM339.731 46.27C340.381 46.65 340.791 47.36 340.791 47.97C340.791 49.21 339.771 50.09 338.321 50.09C336.881 50.09 335.861 49.19 335.861 47.91H336.921C336.921 48.64 337.501 49.15 338.321 49.15C339.161 49.15 339.761 48.64 339.761 47.91C339.761 47.21 339.171 46.71 338.341 46.71H337.821V45.82H338.351C339.111 45.82 339.651 45.37 339.651 44.73C339.651 44.08 339.131 43.63 338.391 43.63C337.651 43.63 337.141 44.09 337.141 44.74H336.081C336.081 43.53 337.031 42.69 338.391 42.69C339.731 42.69 340.681 43.51 340.681 44.67C340.681 45.23 340.321 45.89 339.731 46.27ZM344.499 49.16C345.499 49.16 346.169 48.04 346.169 46.39C346.169 44.73 345.499 43.61 344.499 43.61C343.499 43.61 342.819 44.73 342.819 46.39C342.819 48.04 343.499 49.16 344.499 49.16ZM344.499 50.1C342.889 50.1 341.759 48.56 341.759 46.39C341.759 44.21 342.889 42.68 344.499 42.68C346.099 42.68 347.229 44.21 347.229 46.39C347.229 48.56 346.099 50.1 344.499 50.1ZM350.72 46.33C351.03 45.57 351.79 45.06 352.56 45.1C352.87 45.13 353.29 45.27 353.57 45.45L354.41 45.97C354.57 46.07 354.78 46.15 354.9 46.15C355.22 46.17 355.55 45.93 355.69 45.56L356.72 45.96C356.41 46.76 355.63 47.3 354.83 47.25C354.55 47.23 354.14 47.1 353.84 46.91L352.98 46.38C352.83 46.29 352.63 46.21 352.49 46.2C352.19 46.19 351.87 46.42 351.74 46.75L350.72 46.33ZM362.966 42.76V50.03L361.906 50.02V43.89L360.626 44.6L360.186 43.71L361.916 42.76H362.966ZM368.305 46.27C368.955 46.65 369.365 47.36 369.365 47.97C369.365 49.21 368.345 50.09 366.895 50.09C365.455 50.09 364.435 49.19 364.435 47.91H365.495C365.495 48.64 366.075 49.15 366.895 49.15C367.735 49.15 368.335 48.64 368.335 47.91C368.335 47.21 367.745 46.71 366.915 46.71H366.395V45.82H366.925C367.685 45.82 368.225 45.37 368.225 44.73C368.225 44.08 367.705 43.63 366.965 43.63C366.225 43.63 365.715 44.09 365.715 44.74H364.655C364.655 43.53 365.605 42.69 366.965 42.69C368.305 42.69 369.255 43.51 369.255 44.67C369.255 45.23 368.895 45.89 368.305 46.27ZM371.344 44.1C371.694 44.1 371.934 44.35 371.934 44.69C371.934 45.04 371.694 45.29 371.344 45.29C371.004 45.29 370.754 45.04 370.754 44.69C370.754 44.35 371.004 44.1 371.344 44.1ZM371.344 47.46C371.694 47.46 371.934 47.71 371.934 48.05C371.934 48.4 371.694 48.65 371.344 48.65C371.004 48.65 370.754 48.4 370.754 48.05C370.754 47.71 371.004 47.46 371.344 47.46ZM377.192 46.27C377.842 46.65 378.252 47.36 378.252 47.97C378.252 49.21 377.232 50.09 375.782 50.09C374.342 50.09 373.322 49.19 373.322 47.91H374.382C374.382 48.64 374.962 49.15 375.782 49.15C376.622 49.15 377.222 48.64 377.222 47.91C377.222 47.21 376.632 46.71 375.802 46.71H375.282V45.82H375.812C376.572 45.82 377.112 45.37 377.112 44.73C377.112 44.08 376.592 43.63 375.852 43.63C375.112 43.63 374.602 44.09 374.602 44.74H373.542C373.542 43.53 374.492 42.69 375.852 42.69C377.192 42.69 378.142 43.51 378.142 44.67C378.142 45.23 377.782 45.89 377.192 46.27ZM381.96 49.16C382.96 49.16 383.63 48.04 383.63 46.39C383.63 44.73 382.96 43.61 381.96 43.61C380.96 43.61 380.28 44.73 380.28 46.39C380.28 48.04 380.96 49.16 381.96 49.16ZM381.96 50.1C380.35 50.1 379.22 48.56 379.22 46.39C379.22 44.21 380.35 42.68 381.96 42.68C383.56 42.68 384.69 44.21 384.69 46.39C384.69 48.56 383.56 50.1 381.96 50.1ZM394.37 41.9H395.41V50.8H394.37V41.9ZM391.31 45.01H392.58V42.07H393.6V50.38H392.58V45.9H391.31V45.01ZM387.95 42.85H391.96V43.75H390.55V44.33C390.55 45.83 391.07 47.35 392.33 48.09L391.68 48.88C390.87 48.39 390.33 47.55 390.02 46.54C389.72 47.64 389.16 48.57 388.32 49.1L387.66 48.29C388.93 47.49 389.48 45.89 389.48 44.33V43.75H387.95V42.85ZM399.421 42.45C400.811 42.45 401.841 43.34 401.841 44.6C401.841 45.69 401.071 46.5 399.971 46.7V48.01C400.751 47.96 401.541 47.89 402.281 47.78L402.361 48.58C400.411 48.96 398.281 48.97 396.721 48.97L396.591 48.08C397.251 48.08 398.031 48.08 398.851 48.05V46.7C397.751 46.49 396.991 45.68 396.991 44.6C396.991 43.34 398.021 42.45 399.421 42.45ZM399.421 43.38C398.641 43.38 398.061 43.85 398.061 44.6C398.061 45.34 398.641 45.81 399.421 45.81C400.191 45.81 400.771 45.34 400.771 44.6C400.771 43.85 400.191 43.38 399.421 43.38ZM402.811 41.89H403.901V50.82H402.811V41.89ZM410.926 42.27L408.796 50.57H407.726L409.866 42.27H410.926ZM414.227 46.88H422.277V47.77H418.777V50.82H417.677V47.77H414.227V46.88ZM414.957 42.4H421.527V43.28H418.887C418.967 44.25 420.117 45.19 421.857 45.41L421.447 46.29C419.957 46.07 418.787 45.36 418.257 44.4C417.717 45.36 416.547 46.07 415.057 46.29L414.647 45.41C416.387 45.19 417.537 44.25 417.617 43.28H414.957V42.4ZM428.837 41.91H429.937V43.69H431.157V44.59H429.937V46.38H428.837V41.91ZM423.277 42.35H427.457V46H423.277V42.35ZM426.377 43.21H424.357V45.13H426.377V43.21ZM424.147 46.76H429.937V49.1H425.257V49.83H430.217V50.7H424.167V48.29H428.857V47.61H424.147V46.76ZM434.472 42.45H438.712V46.17H434.472V42.45ZM437.652 43.32H435.542V45.3H437.652V43.32ZM440.262 41.91H441.372V46.98H440.262V41.91ZM435.342 47.5H437.882V46.73H439.002V47.5H441.522V48.33H439.012C439.112 49.02 440.172 49.78 441.852 49.95L441.502 50.78C440.062 50.63 438.972 50.06 438.432 49.33C437.892 50.07 436.802 50.63 435.352 50.78L434.992 49.95C436.702 49.79 437.762 49.04 437.862 48.33H435.342V47.5ZM449.037 47.48C450.947 47.48 452.177 48.11 452.177 49.15C452.177 50.18 450.947 50.81 449.037 50.81C447.127 50.81 445.907 50.18 445.907 49.15C445.907 48.11 447.127 47.48 449.037 47.48ZM449.037 48.31C447.757 48.31 446.997 48.61 446.997 49.15C446.997 49.68 447.757 49.97 449.037 49.97C450.317 49.97 451.077 49.68 451.077 49.15C451.077 48.61 450.317 48.31 449.037 48.31ZM445.987 42.33H452.107V43.07C452.107 43.78 452.107 44.52 451.867 45.44L450.787 45.32C451.007 44.47 451.017 43.84 451.017 43.2H445.987V42.33ZM445.067 45.95H448.167V44.34H449.257V45.95H453.087V46.83H445.067V45.95ZM454.187 42.83H457.267V41.88H458.357V42.83H461.407V43.7H454.187V42.83ZM453.797 47.6H461.857V48.48H459.907V50.83H458.817V48.48H456.837V50.83H455.737V48.48H453.797V47.6ZM457.817 44.11C459.697 44.11 460.807 44.64 460.807 45.6C460.807 46.56 459.697 47.11 457.817 47.11C455.937 47.11 454.827 46.56 454.827 45.6C454.827 44.64 455.937 44.11 457.817 44.11ZM457.817 44.92C456.597 44.92 455.967 45.15 455.967 45.6C455.967 46.06 456.597 46.29 457.817 46.29C459.037 46.29 459.667 46.06 459.667 45.6C459.667 45.15 459.037 44.92 457.817 44.92ZM465.027 42.19C466.377 42.19 467.387 43.02 467.387 44.2C467.387 45.38 466.377 46.2 465.027 46.2C463.687 46.2 462.687 45.38 462.687 44.2C462.687 43.02 463.687 42.19 465.027 42.19ZM465.027 43.08C464.297 43.08 463.747 43.51 463.747 44.2C463.747 44.89 464.297 45.31 465.027 45.31C465.777 45.31 466.317 44.89 466.317 44.2C466.317 43.51 465.777 43.08 465.027 43.08ZM468.787 41.91H469.887V46.4H468.787V41.91ZM464.027 46.79H469.887V49.12H465.117V49.84H470.137V50.7H464.047V48.32H468.797V47.64H464.027V46.79ZM480.132 41.9H481.172V50.8H480.132V41.9ZM477.072 45.01H478.342V42.07H479.362V50.38H478.342V45.9H477.072V45.01ZM473.712 42.85H477.722V43.75H476.312V44.33C476.312 45.83 476.832 47.35 478.092 48.09L477.442 48.88C476.632 48.39 476.092 47.55 475.782 46.54C475.482 47.64 474.922 48.57 474.082 49.1L473.422 48.29C474.692 47.49 475.242 45.89 475.242 44.33V43.75H473.712V42.85ZM485.182 42.45C486.572 42.45 487.602 43.34 487.602 44.6C487.602 45.69 486.832 46.5 485.732 46.7V48.01C486.512 47.96 487.302 47.89 488.042 47.78L488.122 48.58C486.172 48.96 484.042 48.97 482.482 48.97L482.352 48.08C483.012 48.08 483.792 48.08 484.612 48.05V46.7C483.512 46.49 482.752 45.68 482.752 44.6C482.752 43.34 483.782 42.45 485.182 42.45ZM485.182 43.38C484.402 43.38 483.822 43.85 483.822 44.6C483.822 45.34 484.402 45.81 485.182 45.81C485.952 45.81 486.532 45.34 486.532 44.6C486.532 43.85 485.952 43.38 485.182 43.38ZM488.572 41.89H489.662V50.82H488.572V41.89ZM493.713 46.39C493.713 47.69 493.213 49.39 492.493 50.54H491.373C492.183 49.42 492.753 47.7 492.753 46.39C492.753 45.08 492.183 43.36 491.373 42.24H492.493C493.213 43.39 493.713 45.09 493.713 46.39Z" fill="#A7A7A7"/>
<path d="M232.152 34.656C233.752 34.656 234.824 32.864 234.824 30.224C234.824 27.568 233.752 25.776 232.152 25.776C230.552 25.776 229.464 27.568 229.464 30.224C229.464 32.864 230.552 34.656 232.152 34.656ZM232.152 36.16C229.576 36.16 227.768 33.696 227.768 30.224C227.768 26.736 229.576 24.288 232.152 24.288C234.712 24.288 236.52 26.736 236.52 30.224C236.52 33.696 234.712 36.16 232.152 36.16ZM242.449 34.656C244.049 34.656 245.121 32.864 245.121 30.224C245.121 27.568 244.049 25.776 242.449 25.776C240.849 25.776 239.761 27.568 239.761 30.224C239.761 32.864 240.849 34.656 242.449 34.656ZM242.449 36.16C239.873 36.16 238.065 33.696 238.065 30.224C238.065 26.736 239.873 24.288 242.449 24.288C245.009 24.288 246.817 26.736 246.817 30.224C246.817 33.696 245.009 36.16 242.449 36.16ZM252.746 34.656C254.346 34.656 255.418 32.864 255.418 30.224C255.418 27.568 254.346 25.776 252.746 25.776C251.146 25.776 250.058 27.568 250.058 30.224C250.058 32.864 251.146 34.656 252.746 34.656ZM252.746 36.16C250.17 36.16 248.362 33.696 248.362 30.224C248.362 26.736 250.17 24.288 252.746 24.288C255.306 24.288 257.114 26.736 257.114 30.224C257.114 33.696 255.306 36.16 252.746 36.16ZM263.043 34.656C264.643 34.656 265.715 32.864 265.715 30.224C265.715 27.568 264.643 25.776 263.043 25.776C261.443 25.776 260.355 27.568 260.355 30.224C260.355 32.864 261.443 34.656 263.043 34.656ZM263.043 36.16C260.467 36.16 258.659 33.696 258.659 30.224C258.659 26.736 260.467 24.288 263.043 24.288C265.603 24.288 267.411 26.736 267.411 30.224C267.411 33.696 265.603 36.16 263.043 36.16ZM269.228 29.264H276.204V30.96H269.228V29.264ZM282.402 34.656C284.002 34.656 285.074 32.864 285.074 30.224C285.074 27.568 284.002 25.776 282.402 25.776C280.802 25.776 279.714 27.568 279.714 30.224C279.714 32.864 280.802 34.656 282.402 34.656ZM282.402 36.16C279.826 36.16 278.018 33.696 278.018 30.224C278.018 26.736 279.826 24.288 282.402 24.288C284.962 24.288 286.77 26.736 286.77 30.224C286.77 33.696 284.962 36.16 282.402 36.16ZM292.699 34.656C294.299 34.656 295.371 32.864 295.371 30.224C295.371 27.568 294.299 25.776 292.699 25.776C291.099 25.776 290.011 27.568 290.011 30.224C290.011 32.864 291.099 34.656 292.699 34.656ZM292.699 36.16C290.123 36.16 288.315 33.696 288.315 30.224C288.315 26.736 290.123 24.288 292.699 24.288C295.259 24.288 297.067 26.736 297.067 30.224C297.067 33.696 295.259 36.16 292.699 36.16ZM302.996 34.656C304.596 34.656 305.668 32.864 305.668 30.224C305.668 27.568 304.596 25.776 302.996 25.776C301.396 25.776 300.308 27.568 300.308 30.224C300.308 32.864 301.396 34.656 302.996 34.656ZM302.996 36.16C300.42 36.16 298.612 33.696 298.612 30.224C298.612 26.736 300.42 24.288 302.996 24.288C305.556 24.288 307.364 26.736 307.364 30.224C307.364 33.696 305.556 36.16 302.996 36.16ZM313.293 34.656C314.893 34.656 315.965 32.864 315.965 30.224C315.965 27.568 314.893 25.776 313.293 25.776C311.693 25.776 310.605 27.568 310.605 30.224C310.605 32.864 311.693 34.656 313.293 34.656ZM313.293 36.16C310.717 36.16 308.909 33.696 308.909 30.224C308.909 26.736 310.717 24.288 313.293 24.288C315.853 24.288 317.661 26.736 317.661 30.224C317.661 33.696 315.853 36.16 313.293 36.16Z" fill="black"/>
<path d="M151.872 24.336H162.064V25.712C162.064 27.488 162.064 29.472 161.536 32.448L159.76 32.256C160.304 29.488 160.304 27.456 160.304 25.76H151.872V24.336ZM150.544 34.016H155.28V29.056H157.024V34.016H163.424V35.456H150.544V34.016ZM174.912 23.04H176.592V31.408H174.912V27.872H173.456V31.344H171.808V23.312H173.456V26.448H174.912V23.04ZM166.848 32.032H176.592V37.296H174.832V33.44H166.848V32.032ZM170.688 24.064C170.688 27.584 168.928 30.048 165.28 31.52L164.432 30.24C167.184 29.184 168.592 27.568 168.864 25.472H165.088V24.064H170.688ZM187.896 26.432H189.784V23.296H191.432V33.296H189.784V27.856H187.896V26.432ZM192.6 23.056H194.264V33.712H192.6V23.056ZM184.792 32.448H186.552V35.6H194.648V37.008H184.792V32.448ZM184.872 24.016H186.568V25.952C186.568 27.616 187.384 29.264 189.144 30.112L188.184 31.44C187.016 30.896 186.2 29.936 185.736 28.784C185.224 30.08 184.328 31.184 183.048 31.792L182.088 30.464C183.992 29.536 184.872 27.632 184.872 25.952V24.016ZM206.297 23.024H208.041V37.312H206.297V29.616H203.641V28.208H206.297V23.024ZM196.825 24.272H203.401V25.712H198.569V28.24H202.873V29.632H198.569V32.592C200.729 32.576 202.329 32.512 204.153 32.208L204.329 33.616C202.265 33.952 200.473 34.016 197.945 34.016H196.825V24.272Z" fill="black"/>
<rect x="150" y="72" width="90" height="30" rx="5" fill="#77C3EB"/>
<path d="M167.193 82.18V83.512H162.897V85.984H166.557V87.316H162.897V91.156H161.349V82.18H167.193ZM172.189 82.18L175.465 91.156H173.821L172.969 88.804H169.501L168.613 91.156H166.969L170.317 82.18H172.189ZM169.993 87.472H172.477L171.253 84.112L169.993 87.472ZM182.82 88.108C183 87.712 183.132 87.136 183.132 86.68C183.132 84.712 181.968 83.44 180.168 83.44C178.38 83.44 177.216 84.712 177.216 86.68C177.216 88.624 178.38 89.896 180.168 89.896C180.84 89.896 181.524 89.68 181.908 89.344L180.672 88.012L181.8 86.98L182.82 88.108ZM175.668 86.68C175.668 83.992 177.528 82.096 180.168 82.096C182.82 82.096 184.68 83.992 184.68 86.68C184.656 87.52 184.344 88.588 183.912 89.272L184.812 90.232L183.696 91.264L182.856 90.34C182.196 90.88 181.092 91.252 180.168 91.252C177.528 91.252 175.668 89.368 175.668 86.68Z" fill="white"/>
<g clip-path="url(#clip0_1415_311)">
<path d="M221.125 82.625L224.875 87L221.125 91.375" stroke="white" stroke-width="1.5" stroke-linecap="round" stroke-linejoin="round"/>
</g>
<rect x="265" y="72" width="90" height="30" rx="5" fill="#77C3EB"/>
<path d="M282.658 82.276V91.06L281.11 91.036V83.896L279.442 84.688L278.878 83.344L281.122 82.276H282.658ZM285.637 83.812C286.117 83.812 286.465 84.16 286.465 84.64C286.465 85.12 286.117 85.468 285.637 85.468C285.157 85.468 284.809 85.12 284.809 84.64C284.809 84.16 285.157 83.812 285.637 83.812ZM284.809 88.66C284.809 88.18 285.157 87.832 285.637 87.832C286.117 87.832 286.465 88.18 286.465 88.66C286.465 89.152 286.117 89.5 285.637 89.5C285.157 89.5 284.809 89.152 284.809 88.66ZM291.705 82.276V91.06L290.157 91.036V83.896L288.489 84.688L287.925 83.344L290.169 82.276H291.705ZM295.95 86.548H305.73V87.808H301.782V89.608H300.174V87.808H295.95V86.548ZM297.078 91.852V88.696H298.674V90.58H304.65V91.852H297.078ZM297.15 85.72V81.676H304.494V85.72H297.15ZM298.722 84.448H302.922V82.924H298.722V84.448ZM309.906 81.928C311.598 81.928 312.882 83.044 312.882 84.604C312.882 86.164 311.598 87.28 309.906 87.28C308.202 87.28 306.918 86.164 306.918 84.604C306.918 83.044 308.202 81.928 309.906 81.928ZM306.486 88.576C308.37 88.576 311.022 88.564 313.278 88.228L313.398 89.38C311.07 89.836 308.526 89.872 306.666 89.872L306.486 88.576ZM308.478 84.604C308.478 85.432 309.102 85.912 309.906 85.912C310.71 85.912 311.322 85.432 311.322 84.604C311.322 83.764 310.71 83.296 309.906 83.296C309.102 83.296 308.478 83.764 308.478 84.604ZM313.866 92.044V81.208H315.462V92.044H313.866Z" fill="white"/>
<g clip-path="url(#clip1_1415_311)">
<path d="M336.125 82.625L339.875 87L336.125 91.375" stroke="white" stroke-width="1.5" stroke-linecap="round" stroke-linejoin="round"/>
</g>
<path d="M1583.9 31.956L1580.83 26.51V34.112H1579.35V23.78H1580.96L1584.55 30.094L1588.14 23.78H1589.76V34.112H1588.28V26.51L1585.2 31.956H1583.9ZM1600.48 23.78L1596.88 30.08V34.112H1595.4V30.08L1591.8 23.78H1593.52L1596.14 28.442L1598.76 23.78H1600.48ZM1611.72 23.78L1615.55 34.112H1613.97L1612.94 31.298H1608.69L1607.62 34.112H1606.03L1609.94 23.78H1611.72ZM1609.17 30.01H1612.45L1610.84 25.656L1609.17 30.01ZM1621.26 34.224C1618.26 34.224 1616.16 32.04 1616.16 28.946C1616.16 25.838 1618.26 23.668 1621.26 23.668C1622.67 23.668 1623.93 24.27 1624.85 25.208L1623.87 26.174C1623.26 25.446 1622.28 24.97 1621.24 24.97C1619.1 24.97 1617.66 26.566 1617.66 28.946C1617.66 31.326 1619.1 32.922 1621.24 32.922C1622.35 32.922 1623.23 32.418 1623.82 31.746L1624.85 32.684C1623.93 33.622 1622.74 34.238 1621.26 34.224ZM1631.54 34.224C1628.55 34.224 1626.45 32.04 1626.45 28.946C1626.45 25.838 1628.55 23.668 1631.54 23.668C1632.96 23.668 1634.22 24.27 1635.14 25.208L1634.16 26.174C1633.55 25.446 1632.57 24.97 1631.53 24.97C1629.39 24.97 1627.95 26.566 1627.95 28.946C1627.95 31.326 1629.39 32.922 1631.53 32.922C1632.64 32.922 1633.52 32.418 1634.11 31.746L1635.14 32.684C1634.22 33.622 1633.03 34.238 1631.54 34.224ZM1641.92 32.922C1644.1 32.922 1645.57 31.326 1645.57 28.946C1645.57 26.566 1644.1 24.97 1641.92 24.97C1639.73 24.97 1638.28 26.566 1638.28 28.946C1638.28 31.326 1639.73 32.922 1641.92 32.922ZM1636.78 28.946C1636.78 25.852 1638.91 23.668 1641.92 23.668C1644.94 23.668 1647.07 25.852 1647.07 28.946C1647.07 32.04 1644.94 34.224 1641.92 34.224C1638.91 34.224 1636.78 32.04 1636.78 28.946ZM1653.05 34.21C1650.56 34.21 1649.1 32.474 1649.1 30.024V23.78H1650.59V30.024C1650.59 31.704 1651.41 32.838 1653.05 32.838C1654.69 32.838 1655.52 31.704 1655.52 30.024V23.78H1657.01V30.024C1657.01 32.474 1655.54 34.21 1653.05 34.21ZM1667.68 23.78V34.112H1666.07L1660.94 26.328V34.112H1659.46V23.78H1661.07L1666.18 31.55V23.78H1667.68ZM1676.94 23.78V25.082H1674.03V34.112H1672.53V25.082H1669.6V23.78H1676.94Z" fill="black"/>
<path d="M1584.67 44.93H1585.65V53.78H1584.67V44.93ZM1578.43 51.36C1579.14 51.36 1579.95 51.36 1580.79 51.34V50.46C1579.79 50.31 1579.14 49.71 1579.14 48.85C1579.14 47.86 1580 47.2 1581.28 47.2C1582.56 47.2 1583.44 47.86 1583.44 48.85C1583.44 49.71 1582.78 50.31 1581.78 50.45V51.3C1582.58 51.26 1583.39 51.2 1584.15 51.1L1584.21 51.81C1582.27 52.16 1580.16 52.17 1578.55 52.17L1578.43 51.36ZM1578.61 46.75V45.97H1580.79V44.95H1581.78V45.97H1583.97V46.75H1578.61ZM1580.06 48.85C1580.06 49.4 1580.57 49.74 1581.28 49.74C1582.01 49.74 1582.51 49.4 1582.51 48.85C1582.51 48.29 1582.01 47.95 1581.28 47.95C1580.57 47.95 1580.06 48.29 1580.06 48.85ZM1593.76 44.93H1594.74V51.65H1593.76V50.82H1592.01V50.13H1593.76V44.93ZM1587.38 48.95C1589 48.95 1591.18 48.93 1593.06 48.7L1593.12 49.4C1592.38 49.52 1591.6 49.6 1590.84 49.65V51.37H1589.86V49.7C1589.02 49.74 1588.21 49.75 1587.51 49.75L1587.38 48.95ZM1588.05 46.82C1588.05 45.89 1588.95 45.27 1590.24 45.27C1591.54 45.27 1592.43 45.89 1592.43 46.82C1592.43 47.77 1591.54 48.38 1590.24 48.38C1588.95 48.38 1588.05 47.77 1588.05 46.82ZM1588.58 53.6V51H1589.56V52.8H1594.95V53.6H1588.58ZM1588.99 46.82C1588.99 47.34 1589.51 47.65 1590.24 47.65C1590.99 47.65 1591.49 47.34 1591.49 46.82C1591.49 46.3 1590.99 45.99 1590.24 45.99C1589.51 45.99 1588.99 46.3 1588.99 46.82ZM1601.21 47.17H1602.81V44.93H1603.79V50.19H1602.81V47.97H1601.21V47.17ZM1596.47 49.37C1597.83 48.89 1598.64 47.7 1598.64 46.48V46.33H1596.75V45.54H1601.49V46.33H1599.63V46.48C1599.63 47.58 1600.39 48.67 1601.72 49.13L1601.23 49.91C1600.25 49.56 1599.54 48.87 1599.16 48.01C1598.77 48.99 1598.01 49.77 1596.96 50.15L1596.47 49.37ZM1597.86 52.11C1597.86 51.07 1599 50.44 1600.85 50.44C1602.69 50.44 1603.82 51.07 1603.82 52.11C1603.82 53.17 1602.69 53.78 1600.85 53.78C1599 53.78 1597.86 53.17 1597.86 52.11ZM1598.85 52.11C1598.85 52.69 1599.58 53.02 1600.85 53.02C1602.1 53.02 1602.85 52.69 1602.85 52.11C1602.85 51.52 1602.1 51.19 1600.85 51.19C1599.58 51.19 1598.85 51.52 1598.85 52.11ZM1605.51 51.88H1609.02V50.08H1606.42V45.53H1607.39V47.02H1611.63V45.53H1612.6V50.08H1609.99V51.88H1613.53V52.69H1605.51V51.88ZM1607.39 49.29H1611.63V47.81H1607.39V49.29ZM1618.04 45.23H1619.07V45.69C1619.07 46.85 1620.44 47.97 1622.2 48.22L1621.81 49C1620.36 48.77 1619.13 48.02 1618.56 46.99C1617.99 48.03 1616.76 48.77 1615.3 49L1614.91 48.22C1616.69 47.97 1618.04 46.87 1618.04 45.69V45.23ZM1614.55 50.66V49.85H1622.55V50.66H1619.02V53.78H1618.04V50.66H1614.55ZM1628.33 47.17H1629.93V44.93H1630.91V50.19H1629.93V47.97H1628.33V47.17ZM1623.59 49.37C1624.95 48.89 1625.76 47.7 1625.76 46.48V46.33H1623.87V45.54H1628.61V46.33H1626.75V46.48C1626.75 47.58 1627.51 48.67 1628.84 49.13L1628.35 49.91C1627.37 49.56 1626.66 48.87 1626.28 48.01C1625.89 48.99 1625.13 49.77 1624.08 50.15L1623.59 49.37ZM1624.98 52.11C1624.98 51.07 1626.12 50.44 1627.97 50.44C1629.81 50.44 1630.94 51.07 1630.94 52.11C1630.94 53.17 1629.81 53.78 1627.97 53.78C1626.12 53.78 1624.98 53.17 1624.98 52.11ZM1625.97 52.11C1625.97 52.69 1626.7 53.02 1627.97 53.02C1629.22 53.02 1629.97 52.69 1629.97 52.11C1629.97 51.52 1629.22 51.19 1627.97 51.19C1626.7 51.19 1625.97 51.52 1625.97 52.11Z" fill="#525252"/>
<path d="M1727.06 23.78V34.112H1725.56V29.45H1720.69V34.112H1719.2V23.78H1720.69V28.162H1725.56V23.78H1727.06ZM1736.25 23.78V25.082H1731.05V28.148H1735.52V29.436H1731.05V32.81H1736.25V34.112H1729.57V23.78H1736.25ZM1740.1 23.78V32.81H1744.77V34.112H1738.61V23.78H1740.1ZM1750.66 28.932C1751.78 28.932 1752.56 28.134 1752.56 27C1752.56 25.88 1751.76 25.082 1750.64 25.082H1748.38V28.932H1750.66ZM1746.89 34.112V23.78H1750.7C1752.66 23.78 1754.03 25.11 1754.03 27C1754.03 28.89 1752.66 30.22 1750.7 30.22H1748.38V34.112H1746.89Z" fill="black"/>
<path d="M1722.39 50.1379C1724.28 50.1379 1725.5 50.7579 1725.5 51.7879C1725.5 52.8079 1724.28 53.4279 1722.39 53.4279C1720.5 53.4279 1719.29 52.8079 1719.29 51.7879C1719.29 50.7579 1720.5 50.1379 1722.39 50.1379ZM1718.44 49.4279V48.6379H1721.6V46.9979H1722.57V48.6379H1726.42V49.4279H1718.44ZM1719.37 45.7979V45.0079H1725.43V45.7579C1725.43 46.4679 1725.43 47.1879 1725.19 48.1079L1724.22 47.9979C1724.45 47.1079 1724.45 46.4679 1724.45 45.7979H1719.37ZM1720.27 51.7879C1720.27 52.3479 1721.07 52.6679 1722.39 52.6679C1723.71 52.6679 1724.52 52.3479 1724.52 51.7879C1724.52 51.2179 1723.71 50.8879 1722.39 50.8879C1721.07 50.8879 1720.27 51.2179 1720.27 51.7879ZM1727.74 45.4579H1732.7V46.2779H1730.71V47.1679C1730.71 48.6379 1731.65 50.1579 1733.01 50.7479L1732.46 51.5279C1731.44 51.0579 1730.64 50.0979 1730.23 48.9379C1729.82 50.1779 1729.02 51.2479 1727.99 51.7379L1727.43 50.9679C1728.78 50.3279 1729.72 48.6779 1729.72 47.1679V46.2779H1727.74V45.4579ZM1733.75 53.4279V44.5779H1734.73V53.4279H1733.75ZM1738.61 45.3179H1739.58V46.7779C1739.58 48.3479 1740.44 49.9679 1741.76 50.6179L1741.16 51.3979C1740.21 50.8979 1739.49 49.9279 1739.11 48.7579C1738.72 50.0079 1737.97 51.0479 1736.96 51.5679L1736.37 50.7679C1737.73 50.1079 1738.61 48.4079 1738.61 46.7779V45.3179ZM1742.37 53.4279V44.5779H1743.36V48.0979H1744.75V48.9179H1743.36V53.4279H1742.37ZM1751.47 44.5779H1752.45V46.9579H1753.71V47.7679H1752.45V50.2379H1751.47V44.5779ZM1745.57 46.2979V45.5179H1747.68V44.5079H1748.67V45.5179H1750.78V46.2979H1745.57ZM1746.04 48.2479C1746.04 47.3079 1746.9 46.6879 1748.17 46.6879C1749.45 46.6879 1750.32 47.3079 1750.32 48.2479C1750.32 49.2079 1749.45 49.8279 1748.17 49.8279C1746.9 49.8279 1746.04 49.2079 1746.04 48.2479ZM1746.73 51.8679C1746.73 50.8979 1747.84 50.3279 1749.64 50.3279C1751.44 50.3279 1752.55 50.8979 1752.55 51.8679C1752.55 52.8479 1751.44 53.4179 1749.64 53.4179C1747.84 53.4179 1746.73 52.8479 1746.73 51.8679ZM1746.98 48.2479C1746.98 48.7679 1747.46 49.0979 1748.17 49.0979C1748.89 49.0979 1749.37 48.7679 1749.37 48.2479C1749.37 47.7279 1748.89 47.4179 1748.17 47.4179C1747.46 47.4179 1746.98 47.7279 1746.98 48.2479ZM1747.7 51.8679C1747.7 52.3879 1748.41 52.6679 1749.64 52.6679C1750.87 52.6679 1751.59 52.3879 1751.59 51.8679C1751.59 51.3579 1750.87 51.0779 1749.64 51.0779C1748.41 51.0779 1747.7 51.3579 1747.7 51.8679Z" fill="#525252"/>
<path d="M1722.36 63.9249V71.1749L1721.41 71.1649V64.9549L1720.19 65.6849L1719.76 64.9049L1721.42 63.9249H1722.36ZM1725.12 65.3049C1725.44 65.3049 1725.66 65.5249 1725.66 65.8449C1725.66 66.1649 1725.44 66.3949 1725.12 66.3949C1724.81 66.3949 1724.58 66.1649 1724.58 65.8449C1724.58 65.5249 1724.81 65.3049 1725.12 65.3049ZM1724.58 69.2049C1724.58 68.8949 1724.81 68.6649 1725.12 68.6649C1725.44 68.6649 1725.66 68.8949 1725.66 69.2049C1725.66 69.5249 1725.44 69.7549 1725.12 69.7549C1724.81 69.7549 1724.58 69.5249 1724.58 69.2049ZM1729.92 63.9249V71.1749L1728.97 71.1649V64.9549L1727.75 65.6849L1727.32 64.9049L1728.98 63.9249H1729.92ZM1736.26 63.5549H1737.23V64.4949C1737.23 65.6449 1738.01 66.7149 1739.32 67.1549L1738.81 67.9149C1737.86 67.5849 1737.15 66.9049 1736.76 66.0549C1736.39 67.0249 1735.65 67.7949 1734.63 68.1749L1734.1 67.3949C1735.49 66.9049 1736.26 65.7049 1736.26 64.4149V63.5549ZM1735.3 70.2749C1735.3 69.2349 1736.42 68.6349 1738.24 68.6349C1740.06 68.6349 1741.18 69.2349 1741.18 70.2749C1741.18 71.3149 1740.06 71.9249 1738.24 71.9249C1736.42 71.9249 1735.3 71.3149 1735.3 70.2749ZM1736.26 70.2749C1736.26 70.8449 1737 71.1649 1738.24 71.1649C1739.48 71.1649 1740.21 70.8449 1740.21 70.2749C1740.21 69.7149 1739.48 69.3949 1738.24 69.3949C1737 69.3949 1736.26 69.7149 1736.26 70.2749ZM1740.1 68.4049V63.0849H1741.08V65.2849H1742.34V66.1049H1741.08V68.4049H1740.1ZM1749.15 63.0849H1750.13V65.1849H1751.38V65.9749H1750.13V68.0749H1749.15V63.0849ZM1743.61 67.6449V63.6549H1747.52V64.4449H1744.59V66.8449C1746.28 66.8349 1747.23 66.7849 1748.3 66.5649L1748.4 67.3549C1747.24 67.5949 1746.21 67.6449 1744.31 67.6449H1743.61ZM1744.5 71.8149V68.5149H1750.13V71.8149H1744.5ZM1745.46 71.0349H1749.17V69.2849H1745.46V71.0349ZM1758.84 63.0849H1759.78V71.9349H1758.84V67.4149H1757.77V71.4849H1756.85V63.2649H1757.77V66.6149H1758.84V63.0849ZM1752.66 69.6949V64.1249H1753.63V68.8449C1754.42 68.8249 1755.29 68.7649 1756.27 68.5749L1756.37 69.4249C1755.19 69.6449 1754.17 69.6949 1753.24 69.6949H1752.66ZM1762.66 68.7649H1768.62V71.9349H1767.64V69.5449H1762.66V68.7649ZM1761.42 65.7149C1761.42 64.4649 1762.4 63.5749 1763.72 63.5749C1764.46 63.5749 1765.1 63.8649 1765.52 64.3449H1767.64V63.0849H1768.62V68.3049H1767.64V67.1049H1765.51C1765.09 67.5849 1764.46 67.8649 1763.72 67.8649C1762.4 67.8649 1761.42 66.9749 1761.42 65.7149ZM1762.35 65.7149C1762.35 66.5149 1762.93 67.0349 1763.72 67.0349C1764.5 67.0349 1765.07 66.5149 1765.07 65.7149C1765.07 64.9349 1764.5 64.4049 1763.72 64.4049C1762.93 64.4049 1762.35 64.9349 1762.35 65.7149ZM1765.93 66.3049H1767.64V65.1449H1765.94C1765.98 65.3249 1766.01 65.5149 1766.01 65.7149C1766.01 65.9249 1765.98 66.1149 1765.93 66.3049Z" fill="#525252"/>
<path d="M1724.71 81.582H1725.7V90.452H1724.71V81.582ZM1718.72 85.352C1718.72 83.452 1719.67 82.242 1721 82.242C1722.32 82.242 1723.27 83.452 1723.27 85.352C1723.27 87.272 1722.32 88.482 1721 88.482C1719.67 88.482 1718.72 87.272 1718.72 85.352ZM1719.67 85.352C1719.67 86.742 1720.21 87.592 1721 87.592C1721.78 87.592 1722.33 86.742 1722.33 85.352C1722.33 83.972 1721.78 83.132 1721 83.132C1720.21 83.132 1719.67 83.972 1719.67 85.352ZM1727.47 85.902H1729.37V84.722C1728.7 84.442 1728.32 83.992 1728.32 83.412C1728.32 82.362 1729.54 81.742 1731.47 81.742C1733.4 81.742 1734.62 82.362 1734.62 83.412C1734.62 84.002 1734.23 84.452 1733.55 84.732V85.902H1735.46V86.682H1727.47V85.902ZM1728.41 88.852C1728.41 87.842 1729.56 87.272 1731.46 87.272C1733.36 87.272 1734.5 87.842 1734.5 88.852C1734.5 89.872 1733.36 90.442 1731.46 90.442C1729.56 90.442 1728.41 89.872 1728.41 88.852ZM1729.33 83.412C1729.33 83.992 1730.13 84.322 1731.47 84.322C1732.8 84.322 1733.6 83.992 1733.6 83.412C1733.6 82.832 1732.8 82.502 1731.47 82.502C1730.13 82.502 1729.33 82.832 1729.33 83.412ZM1729.4 88.852C1729.4 89.392 1730.14 89.682 1731.46 89.682C1732.77 89.682 1733.51 89.392 1733.51 88.852C1733.51 88.312 1732.77 88.022 1731.46 88.022C1730.14 88.022 1729.4 88.312 1729.4 88.852ZM1730.35 85.902H1732.58V84.992C1732.24 85.042 1731.87 85.072 1731.47 85.072C1731.06 85.072 1730.69 85.042 1730.35 84.992V85.902ZM1742.43 81.582H1743.41V84.222H1744.67V85.022H1743.41V88.082H1742.43V81.582ZM1736.64 84.402C1736.64 83.102 1737.65 82.192 1738.98 82.192C1740.31 82.192 1741.32 83.102 1741.32 84.402C1741.32 85.682 1740.31 86.612 1738.98 86.612C1737.65 86.612 1736.64 85.682 1736.64 84.402ZM1737.59 84.402C1737.59 85.212 1738.19 85.752 1738.98 85.752C1739.77 85.752 1740.37 85.212 1740.37 84.402C1740.37 83.592 1739.77 83.042 1738.98 83.042C1738.19 83.042 1737.59 83.592 1737.59 84.402ZM1737.83 90.262V87.412H1738.81V89.462H1743.79V90.262H1737.83ZM1752.13 81.592H1753.07V90.442H1752.13V85.922H1751.06V89.992H1750.14V81.772H1751.06V85.122H1752.13V81.592ZM1745.95 88.202V82.632H1746.92V87.352C1747.71 87.332 1748.58 87.272 1749.56 87.082L1749.66 87.932C1748.48 88.152 1747.46 88.202 1746.53 88.202H1745.95Z" fill="#525252"/>
<path d="M151.785 156.258H152.859V157.593H158.027V156.258H159.113V160.664H155.967V161.8H160.399V162.674H150.474V161.8H154.894V160.664H151.785V156.258ZM152.859 158.442V159.803H158.027V158.442H152.859ZM151.748 163.535H152.821V165.695H159.3V166.581H151.748V163.535ZM166.934 156.769H167.995V158.679C167.995 160.614 169.156 162.624 170.754 163.411L170.092 164.259C168.906 163.635 167.957 162.387 167.471 160.889C166.984 162.487 165.998 163.823 164.762 164.484L164.1 163.61C165.735 162.799 166.934 160.689 166.934 158.679V156.769ZM171.64 155.833H172.726V160.24H174.511V161.164H172.726V166.819H171.64V155.833ZM183.088 155.808H184.174V166.831H183.088V155.808ZM178.357 156.657C179.992 156.657 181.165 158.143 181.165 160.502C181.165 162.849 179.992 164.347 178.357 164.347C176.721 164.347 175.548 162.849 175.548 160.502C175.548 158.143 176.721 156.657 178.357 156.657ZM178.357 157.631C177.32 157.631 176.596 158.742 176.596 160.502C176.596 162.262 177.32 163.386 178.357 163.386C179.393 163.386 180.117 162.262 180.117 160.502C180.117 158.742 179.393 157.631 178.357 157.631ZM187.345 156.744H194.81V157.618H188.443V159.191H194.56V160.053H188.443V161.7H194.91V162.587H187.345V156.744ZM186.084 164.522H196.033V165.408H186.084V164.522ZM200.54 156.607C202.251 156.607 203.486 157.681 203.486 159.216C203.486 160.764 202.251 161.825 200.54 161.825C198.818 161.825 197.582 160.764 197.582 159.216C197.582 157.681 198.818 156.607 200.54 156.607ZM200.54 157.543C199.442 157.543 198.63 158.217 198.63 159.216C198.63 160.202 199.442 160.889 200.54 160.889C201.626 160.889 202.438 160.202 202.438 159.216C202.438 158.217 201.626 157.543 200.54 157.543ZM204.885 155.808H205.958V166.831H204.885V155.808ZM197.045 163.535C199.03 163.535 201.801 163.535 204.173 163.161L204.26 163.96C201.814 164.434 199.13 164.447 197.182 164.447L197.045 163.535ZM211.944 156.345H219.484V157.281C219.484 158.317 219.484 159.428 219.197 160.914L218.123 160.851C218.248 160.227 218.323 159.678 218.36 159.166L211.832 159.478L211.694 158.567L218.41 158.355L218.423 157.281V157.219H211.944V156.345ZM210.795 161.625H214.765V160.078H215.851V161.625H220.695V162.499H210.795V161.625ZM212.044 163.411H213.117V165.77H219.734V166.656H212.044V163.411ZM226.413 158.929H227.811V156.045H228.822V163.773H227.811V159.803H226.413V158.929ZM229.933 155.821H230.969V164.06H229.933V155.821ZM223.816 163.161H224.902V165.695H231.281V166.569H223.816V163.161ZM222.193 156.732H226.325V157.606H223.229V159.029H225.913V159.89H223.229V161.401C224.727 161.388 225.689 161.338 226.812 161.126L226.912 161.975C225.664 162.237 224.627 162.275 222.892 162.275H222.193V156.732ZM232.605 164.522H242.554V165.42H232.605V164.522ZM233.528 157.531H237.036V156.058H238.11V157.531H241.63V158.405H238.122C238.135 160.127 239.833 161.501 241.98 161.863L241.568 162.749C239.795 162.412 238.272 161.476 237.573 160.102C236.887 161.476 235.364 162.412 233.578 162.749L233.154 161.863C235.314 161.501 237.024 160.127 237.036 158.405H233.528V157.531ZM244.839 156.22H245.912V159.079H252.329V159.953H244.839V156.22ZM243.516 161.388H253.465V162.262H243.516V161.388ZM244.776 163.323H245.838V165.67H252.391V166.556H244.776V163.323ZM265.28 155.808H266.354V166.831H265.28V160.677H262.959V159.803H265.28V155.808ZM257.591 156.944H263.583V157.83H261.123V158.979C261.123 160.827 262.359 162.824 263.982 163.585L263.346 164.447C262.097 163.835 261.099 162.537 260.599 161.039C260.112 162.637 259.089 164.022 257.828 164.671L257.191 163.81C258.814 163.024 260.037 160.951 260.037 158.979V157.83H257.591V156.944ZM268.477 156.582H274.369V157.456H271.972V157.818C271.972 159.254 272.983 160.589 274.618 161.139L274.069 162C272.833 161.563 271.922 160.677 271.448 159.578C270.973 160.789 270.012 161.75 268.726 162.212L268.152 161.363C269.837 160.777 270.898 159.353 270.898 157.818V157.456H268.477V156.582ZM275.667 155.833H276.753V158.692H278.364V159.591H276.753V162.437H275.667V155.833ZM269.6 163.024H276.753V166.819H275.667V163.897H269.6V163.024ZM287.102 155.821H288.188V164.122H287.102V162.637H284.743V161.788H287.102V155.821ZM280.636 163.223H281.722V165.695H288.45V166.569H280.636V163.223ZM279.038 160.14C280.424 160.14 282.146 160.127 283.844 160.015C284.044 158.854 284.081 157.968 284.094 157.344H280.037V156.47H285.167V156.894C285.167 157.506 285.167 158.53 284.93 159.928C285.355 159.878 285.754 159.84 286.154 159.778L286.228 160.552C285.23 160.727 284.194 160.839 283.182 160.901V163.411H282.109V160.964C281.06 161.014 280.062 161.026 279.188 161.026L279.038 160.14ZM290.56 156.395H291.634V158.043H294.493V156.395H295.554V158.492H298.001V155.833H299.087V161.825H298.001V159.378H295.554V161.438H290.56V156.395ZM291.634 158.879V160.552H294.493V158.879H291.634ZM292.021 162.35H293.082V163.623H298.013V162.35H299.074V166.656H292.021V162.35ZM293.082 164.497V165.782H298.013V164.497H293.082ZM304.492 156.607C306.203 156.607 307.439 157.681 307.439 159.216C307.439 160.764 306.203 161.825 304.492 161.825C302.77 161.825 301.534 160.764 301.534 159.216C301.534 157.681 302.77 156.607 304.492 156.607ZM304.492 157.543C303.394 157.543 302.582 158.217 302.582 159.216C302.582 160.202 303.394 160.889 304.492 160.889C305.578 160.889 306.39 160.202 306.39 159.216C306.39 158.217 305.578 157.543 304.492 157.543ZM308.837 155.808H309.91V166.831H308.837V155.808ZM300.997 163.535C302.982 163.535 305.753 163.535 308.125 163.161L308.212 163.96C305.766 164.434 303.082 164.447 301.134 164.447L300.997 163.535ZM314.735 164.522H319.154V162.212H315.896V156.582H316.97V158.505H322.437V156.582H323.511V162.212H320.228V164.522H324.684V165.42H314.735V164.522ZM316.97 159.378V161.338H322.437V159.378H316.97ZM326.133 157.394H330.065V155.983H331.151V157.394H335.071V158.267H326.133V157.394ZM325.646 164.646H330.065V163.161C328.155 163.036 326.994 162.287 326.994 161.064C326.994 159.74 328.367 158.966 330.602 158.966C332.824 158.966 334.21 159.74 334.21 161.064C334.21 162.287 333.049 163.036 331.151 163.161V164.646H335.595V165.533H325.646V164.646ZM330.602 159.815C329.029 159.815 328.08 160.277 328.08 161.064C328.08 161.85 329.029 162.312 330.602 162.312C332.162 162.312 333.111 161.85 333.111 161.064C333.111 160.277 332.162 159.815 330.602 159.815ZM336.557 160.914H346.506V161.725H336.557V160.914ZM337.73 162.562H345.27V164.946H338.829V165.907H345.607V166.681H337.755V164.21H344.209V163.336H337.73V162.562ZM337.818 156.133H345.233V158.467H338.891V159.353H345.433V160.14H337.843V157.743H344.172V156.907H337.818V156.133ZM357.81 155.833H358.896V158.442H360.494V159.353H358.896V162.25H357.81V155.833ZM350.794 156.432H351.868V158.08H354.839V156.432H355.9V161.588H350.794V156.432ZM351.868 158.942V160.702H354.839V158.942H351.868ZM352.005 162.836H358.983V163.71H353.079V165.782H359.196V166.669H352.005V162.836ZM362.579 156.22H363.652V159.079H370.069V159.953H362.579V156.22ZM361.256 161.388H371.205V162.262H361.256V161.388ZM362.516 163.323H363.578V165.67H370.131V166.556H362.516V163.323ZM382.434 155.833H383.52V160.115H385.293V161.026H383.52V166.819H382.434V155.833ZM375.48 156.757H376.554V159.616H379.563V156.757H380.636V164.185H375.48V156.757ZM376.554 160.465V163.298H379.563V160.465H376.554ZM388.832 162.175H398.781V163.061H394.312V166.831H393.238V163.061H388.832V162.175ZM390.08 156.432H397.508V160.727H390.08V156.432ZM396.446 157.306H391.141V159.878H396.446V157.306ZM407.208 155.821H408.294V159.054H409.904V159.94H408.294V163.773H407.208V155.821ZM400.254 156.757H405.11V157.643H401.328V160.964C403.462 160.964 404.686 160.889 406.084 160.602L406.209 161.476C404.711 161.775 403.438 161.863 401.116 161.863H400.254V156.757ZM401.428 162.974H402.501V165.695H408.768V166.569H401.428V162.974ZM419.36 158.829H421.495V155.833H422.581V163.86H421.495V159.715H419.36V158.829ZM415.528 163.173H416.614V165.695H422.88V166.569H415.528V163.173ZM413.867 156.694H419.747V157.581H417.375V158.055C417.375 159.453 418.411 160.839 420.022 161.401L419.472 162.25C418.249 161.8 417.325 160.901 416.851 159.79C416.377 161.026 415.415 162.025 414.105 162.499L413.543 161.638C415.191 161.064 416.289 159.603 416.289 158.068V157.581H413.867V156.694ZM432.78 155.821H433.816V166.806H432.78V161.126H431.407V166.257H430.396V156.058H431.407V160.227H432.78V155.821ZM424.579 157.094H429.647V157.993H427.699V158.754C427.699 160.764 428.486 162.549 430.034 163.348L429.397 164.185C428.324 163.598 427.6 162.562 427.213 161.276C426.838 162.749 426.102 163.91 424.978 164.584L424.304 163.748C425.877 162.849 426.663 160.976 426.663 158.754V157.993H424.579V157.094ZM436.9 164.859L436.164 167.355H435.39L435.802 164.859H436.9ZM441.728 161.463H446.147V160.215H443.039V156.095H444.112V157.294H449.281V156.095H450.367V160.215H447.221V161.463H451.652V162.337H441.728V161.463ZM442.827 163.386H450.429V166.819H449.355V164.247H442.827V163.386ZM444.112 158.13V159.353H449.281V158.13H444.112ZM455.31 156.769H456.371V158.679C456.371 160.614 457.532 162.624 459.13 163.411L458.469 164.259C457.283 163.635 456.334 162.387 455.847 160.889C455.36 162.487 454.374 163.823 453.138 164.484L452.477 163.61C454.112 162.799 455.31 160.689 455.31 158.679V156.769ZM460.017 155.833H461.103V160.24H462.888V161.164H461.103V166.819H460.017V155.833ZM465.098 164.859L464.361 167.355H463.587L463.999 164.859H465.098ZM470.313 156.869H471.336V159.516H473.508V156.869H474.52V164.085H470.313V156.869ZM471.336 160.377V163.198H473.508V160.377H471.336ZM478.227 155.821H479.263V166.806H478.227V161.039H476.817V166.257H475.805V156.058H476.817V160.152H478.227V155.821ZM480.836 164.559H485.243V162.137H481.735V161.263H483.371V157.731H481.698V156.857H489.875V157.731H488.202V161.263H489.862V162.137H486.317V164.559H490.786V165.458H480.836V164.559ZM484.457 161.263H487.128V157.731H484.457V161.263ZM494.637 161.039H504.561V161.925H494.637V161.039ZM495.885 156.245H503.325V157.144H496.946V159.154H503.4V160.028H495.885V156.245ZM499.58 162.836C501.927 162.836 503.35 163.548 503.35 164.809C503.35 166.082 501.927 166.806 499.58 166.806C497.221 166.806 495.81 166.082 495.81 164.809C495.81 163.548 497.221 162.836 499.58 162.836ZM499.58 163.673C497.895 163.673 496.896 164.097 496.896 164.809C496.896 165.558 497.895 165.957 499.58 165.957C501.266 165.957 502.252 165.558 502.252 164.809C502.252 164.097 501.266 163.673 499.58 163.673ZM510.491 156.02C512.926 156.02 514.374 156.682 514.374 157.905C514.374 159.141 512.926 159.815 510.491 159.815C508.069 159.815 506.609 159.141 506.609 157.905C506.609 156.682 508.069 156.02 510.491 156.02ZM510.491 156.819C508.731 156.819 507.732 157.219 507.732 157.905C507.732 158.617 508.731 159.004 510.491 159.004C512.251 159.004 513.263 158.617 513.263 157.905C513.263 157.219 512.251 156.819 510.491 156.819ZM505.535 160.514H515.46V161.388H505.535V160.514ZM506.721 162.275H514.186V164.796H507.807V165.857H514.523V166.694H506.759V164.022H513.138V163.111H506.721V162.275ZM520.597 156.395H527.999V157.219C527.999 158.093 527.999 159.079 527.712 160.427H529.273V161.313H519.323V160.427H526.651C526.938 159.104 526.951 158.143 526.951 157.281H520.597V156.395ZM520.534 162.761H528.024V166.681H520.534V162.761ZM526.976 163.61H521.595V165.807H526.976V163.61ZM537.687 155.833H538.773V158.604H540.383V159.516H538.773V162.212H537.687V155.833ZM531.832 162.687H532.906V163.81H537.712V162.687H538.773V166.669H531.832V162.687ZM532.906 164.646V165.795H537.712V164.646H532.906ZM530.259 156.932H532.968V155.721H534.042V156.932H536.751V157.793H530.259V156.932ZM533.505 158.267C535.078 158.267 536.139 159.029 536.139 160.202C536.139 161.376 535.078 162.137 533.505 162.137C531.932 162.137 530.871 161.376 530.871 160.202C530.871 159.029 531.932 158.267 533.505 158.267ZM533.505 159.079C532.544 159.079 531.894 159.528 531.894 160.202C531.894 160.876 532.544 161.326 533.505 161.326C534.454 161.326 535.103 160.876 535.103 160.202C535.103 159.528 534.454 159.079 533.505 159.079ZM549.085 155.821H550.158V166.806H549.085V155.821ZM541.819 156.894H542.893V163.061C544.491 163.049 546.188 162.924 547.986 162.562L548.123 163.473C546.213 163.86 544.453 163.997 542.743 163.997H541.819V156.894ZM559.446 155.808H560.532V160.115H562.305V161.014H560.532V166.831H559.446V155.808ZM552.53 156.894H557.636V157.768H553.604V163.186C555.514 163.186 556.887 163.111 558.46 162.811L558.585 163.735C556.9 164.047 555.451 164.097 553.404 164.097H552.53V156.894ZM563.916 164.721C564.303 164.721 564.577 164.996 564.577 165.395C564.577 165.795 564.303 166.082 563.916 166.082C563.516 166.082 563.229 165.795 563.229 165.395C563.229 164.996 563.516 164.721 563.916 164.721ZM155.43 182.007C152.796 182.007 150.949 180.085 150.949 177.363C150.949 174.629 152.796 172.719 155.43 172.719C156.679 172.719 157.79 173.256 158.601 174.08L157.902 174.704C157.29 174.043 156.379 173.643 155.43 173.643C153.408 173.643 152.01 175.166 152.01 177.363C152.01 179.56 153.408 181.083 155.43 181.083C156.404 181.083 157.265 180.671 157.865 180.035L158.601 180.646C157.79 181.47 156.691 182.007 155.43 182.007ZM162.565 181.058C163.601 181.058 164.313 180.235 164.313 179.036C164.313 177.838 163.601 177.001 162.565 177.001C161.541 177.001 160.83 177.825 160.83 179.036C160.83 180.247 161.529 181.058 162.565 181.058ZM162.565 176.078C164.2 176.078 165.361 177.313 165.361 179.036C165.361 180.746 164.2 181.982 162.565 181.982C160.942 181.982 159.794 180.746 159.794 179.036C159.794 177.313 160.942 176.078 162.565 176.078ZM169.657 181.058C170.718 181.058 171.429 180.235 171.429 179.024C171.429 177.825 170.718 176.989 169.657 176.989C168.695 176.989 167.884 177.913 167.884 179.024C167.884 180.147 168.695 181.058 169.657 181.058ZM169.694 176.078C171.317 176.078 172.465 177.301 172.465 179.024C172.465 180.759 171.317 181.982 169.694 181.982C169.082 181.982 168.308 181.608 167.871 180.984V184.566H166.835V176.078H167.871V177.064C168.308 176.402 169.107 176.078 169.694 176.078ZM175.352 184.554H174.216L175.44 181.57L173.093 176.09H174.229L175.989 180.334L177.674 176.09H178.798L175.352 184.554ZM180.035 181.907V176.09H181.071V177.051C181.458 176.427 182.244 176.003 183.018 176.04V177.039C181.957 177.001 181.071 177.925 181.071 178.949V181.907H180.035ZM184.548 176.078H185.585V181.907H184.548V176.078ZM185.073 173.194C185.435 173.194 185.697 173.456 185.697 173.818C185.697 174.193 185.435 174.455 185.073 174.455C184.698 174.455 184.436 174.193 184.436 173.818C184.436 173.456 184.698 173.194 185.073 173.194ZM190.02 181.046C191.018 181.046 191.78 180.135 191.78 179.024C191.78 177.938 191.006 177.001 190.02 177.001C188.984 177.001 188.26 177.838 188.26 179.024C188.26 180.235 188.984 181.046 190.02 181.046ZM192.829 181.533C192.829 183.218 191.705 184.566 189.957 184.566C189.009 184.566 188.135 184.142 187.548 183.218L188.397 182.681C188.809 183.343 189.321 183.63 189.957 183.63C191.106 183.63 191.78 182.706 191.78 181.558V180.934C191.355 181.558 190.631 181.97 189.982 181.97C188.372 181.97 187.223 180.746 187.223 179.036C187.223 177.326 188.372 176.078 189.982 176.078C190.706 176.078 191.393 176.465 191.78 177.076V176.078H192.829V181.533ZM198.599 178.674C198.599 177.675 198.075 176.989 197.288 176.989C196.44 176.989 195.728 177.85 195.728 178.861V181.87H194.679V173.094H195.728V176.939C196.078 176.427 196.664 176.065 197.288 176.065C198.662 176.065 199.648 177.126 199.648 178.587V181.87H198.599V178.674ZM201.935 181.907V177.001H200.874V176.078H201.935V174.068H202.984V176.078H204.357V177.001H202.984V181.907H201.935ZM209.105 177.488C209.105 174.405 211.602 171.908 214.685 171.908C217.769 171.908 220.265 174.405 220.265 177.488C220.265 180.559 217.769 183.056 214.685 183.056C211.602 183.056 209.105 180.559 209.105 177.488ZM210.104 177.488C210.104 179.997 212.164 182.07 214.685 182.07C217.207 182.07 219.267 179.997 219.267 177.488C219.267 174.966 217.207 172.907 214.685 172.907C212.164 172.907 210.104 174.966 210.104 177.488ZM212.675 177.451C212.675 178.774 213.562 179.698 214.835 179.698C215.422 179.698 215.946 179.461 216.346 179.061L217.057 179.748C216.495 180.322 215.709 180.684 214.847 180.684C213 180.684 211.702 179.348 211.702 177.451C211.702 175.553 213 174.217 214.847 174.217C215.709 174.217 216.495 174.579 217.057 175.154L216.346 175.84C215.946 175.441 215.422 175.191 214.835 175.191C213.562 175.191 212.675 176.127 212.675 177.451ZM226.213 179.461C226.688 180.409 227.486 181.083 228.423 181.083C229.646 181.108 230.408 180.484 230.408 179.51C230.408 177.189 225.739 178.162 225.739 175.004C225.739 173.543 226.962 172.707 228.585 172.719C229.833 172.744 230.845 173.406 231.281 174.729L230.345 175.054C230.071 174.168 229.396 173.656 228.573 173.643C227.524 173.631 226.775 174.13 226.775 175.004C226.775 177.301 231.444 176.365 231.444 179.523C231.444 181.021 230.27 182.032 228.41 182.007C227.087 181.982 226.076 181.246 225.327 179.935L226.213 179.461ZM237.271 172.819L240.692 181.907H239.581L238.62 179.336H234.662L233.664 181.907H232.553L236.035 172.819H237.271ZM234.999 178.424H238.27L236.66 174.143L234.999 178.424ZM246.254 180.122L243.42 174.879V181.907H242.371V172.819H243.457L246.753 178.849L250.049 172.819H251.135V181.907H250.098V174.879L247.24 180.122H246.254ZM253.862 179.461C254.337 180.409 255.135 181.083 256.072 181.083C257.295 181.108 258.057 180.484 258.057 179.51C258.057 177.189 253.388 178.162 253.388 175.004C253.388 173.543 254.611 172.707 256.234 172.719C257.482 172.744 258.494 173.406 258.93 174.729L257.994 175.054C257.72 174.168 257.045 173.656 256.222 173.643C255.173 173.631 254.424 174.13 254.424 175.004C254.424 177.301 259.093 176.365 259.093 179.523C259.093 181.021 257.919 182.032 256.059 182.007C254.736 181.982 253.725 181.246 252.976 179.935L253.862 179.461ZM264.224 181.995C262.077 181.995 260.829 180.484 260.829 178.35V172.819H261.877V178.362C261.877 179.947 262.689 181.046 264.224 181.046C265.76 181.046 266.584 179.947 266.584 178.362V172.819H267.632V178.35C267.632 180.484 266.372 181.995 264.224 181.995ZM276.656 172.819V181.907H275.583L270.739 174.642V181.907H269.69V172.819H270.777L275.608 180.06V172.819H276.656ZM287.194 177.176L287.181 177.925C287.181 180.509 285.359 181.957 282.912 182.007C280.29 182.007 278.43 180.085 278.43 177.363C278.43 174.642 280.29 172.732 282.912 172.732C285.746 172.732 286.719 174.929 286.719 174.929L285.808 175.366C285.808 175.366 285.071 173.656 282.912 173.656C280.889 173.656 279.479 175.179 279.479 177.363C279.479 179.56 280.889 181.083 282.912 181.083C284.784 181.021 286.17 180.06 286.182 178.075H283.074V177.176H287.194ZM296.763 172.819L300.184 181.907H299.073L298.111 179.336H294.154L293.155 181.907H292.044L295.527 172.819H296.763ZM294.491 178.424H297.762L296.151 174.143L294.491 178.424ZM301.395 173.094H302.431V181.907H301.395V173.094ZM304.125 173.094H305.162V181.907H304.125V173.094ZM313.116 177.338C314.19 177.338 314.939 176.602 314.939 175.528C314.939 174.455 314.19 173.743 313.116 173.743H311.007V177.338H313.116ZM316.4 181.907H315.151L312.667 178.262H311.007V181.907H309.958V172.819H313.154C314.814 172.819 315.975 173.943 315.975 175.541C315.988 176.777 315.176 177.825 313.853 178.162L316.4 181.907ZM317.99 176.078H319.027V181.907H317.99V176.078ZM318.515 173.194C318.877 173.194 319.139 173.456 319.139 173.818C319.139 174.193 318.877 174.455 318.515 174.455C318.14 174.455 317.878 174.193 317.878 173.818C317.878 173.456 318.14 173.194 318.515 173.194ZM323.462 181.046C324.46 181.046 325.222 180.135 325.222 179.024C325.222 177.938 324.448 177.001 323.462 177.001C322.426 177.001 321.702 177.838 321.702 179.024C321.702 180.235 322.426 181.046 323.462 181.046ZM326.27 181.533C326.27 183.218 325.147 184.566 323.399 184.566C322.451 184.566 321.577 184.142 320.99 183.218L321.839 182.681C322.251 183.343 322.763 183.63 323.399 183.63C324.548 183.63 325.222 182.706 325.222 181.558V180.934C324.797 181.558 324.073 181.97 323.424 181.97C321.814 181.97 320.665 180.746 320.665 179.036C320.665 177.326 321.814 176.078 323.424 176.078C324.148 176.078 324.835 176.465 325.222 177.076V176.078H326.27V181.533ZM332.041 178.674C332.041 177.675 331.517 176.989 330.73 176.989C329.882 176.989 329.17 177.85 329.17 178.861V181.87H328.121V173.094H329.17V176.939C329.52 176.427 330.106 176.065 330.73 176.065C332.104 176.065 333.09 177.126 333.09 178.587V181.87H332.041V178.674ZM335.377 181.907V177.001H334.316V176.078H335.377V174.068H336.426V176.078H337.799V177.001H336.426V181.907H335.377ZM339.569 180.047C339.893 180.746 340.58 181.046 341.017 181.046C341.716 181.046 342.215 180.746 342.215 180.247C342.215 179.773 341.566 179.585 340.917 179.361C340.118 179.086 338.994 178.737 338.994 177.625C338.994 176.639 339.906 176.028 341.067 176.028C341.753 176.028 342.852 176.427 343.127 177.463L342.215 177.775C342.028 177.089 341.404 176.951 341.067 176.951C340.468 176.951 340.031 177.201 340.031 177.625C340.031 178.1 340.63 178.262 341.329 178.499C342.165 178.786 343.251 179.136 343.251 180.247C343.251 181.283 342.303 181.957 341.017 181.957C340.13 181.957 339.207 181.458 338.732 180.547L339.569 180.047ZM351.079 177.338C352.153 177.338 352.902 176.602 352.902 175.528C352.902 174.455 352.153 173.743 351.079 173.743H348.969V177.338H351.079ZM354.362 181.907H353.114L350.63 178.262H348.969V181.907H347.921V172.819H351.116C352.777 172.819 353.938 173.943 353.938 175.541C353.95 176.777 353.139 177.825 351.815 178.162L354.362 181.907ZM358.071 181.957C356.436 181.957 355.288 180.734 355.288 179.024C355.288 177.301 356.436 176.09 358.071 176.09C359.869 176.09 360.418 177.538 360.468 177.675C360.818 178.574 360.705 179.436 360.705 179.473H356.336C356.486 180.397 357.21 181.046 358.071 181.046C359.22 181.046 359.644 180.322 359.732 180.185L360.556 180.609C360.269 181.258 359.445 181.957 358.071 181.957ZM359.694 178.574C359.582 177.688 359.145 177.001 358.071 177.001C357.185 177.001 356.486 177.65 356.336 178.587L359.694 178.574ZM362.756 180.047C363.08 180.746 363.767 181.046 364.204 181.046C364.903 181.046 365.402 180.746 365.402 180.247C365.402 179.773 364.753 179.585 364.104 179.361C363.305 179.086 362.182 178.737 362.182 177.625C362.182 176.639 363.093 176.028 364.254 176.028C364.941 176.028 366.039 176.427 366.314 177.463L365.402 177.775C365.215 177.089 364.591 176.951 364.254 176.951C363.655 176.951 363.218 177.201 363.218 177.625C363.218 178.1 363.817 178.262 364.516 178.499C365.352 178.786 366.439 179.136 366.439 180.247C366.439 181.283 365.49 181.957 364.204 181.957C363.318 181.957 362.394 181.458 361.919 180.547L362.756 180.047ZM370.531 181.957C368.895 181.957 367.747 180.734 367.747 179.024C367.747 177.301 368.895 176.09 370.531 176.09C372.328 176.09 372.877 177.538 372.927 177.675C373.277 178.574 373.165 179.436 373.165 179.473H368.795C368.945 180.397 369.669 181.046 370.531 181.046C371.679 181.046 372.104 180.322 372.191 180.185L373.015 180.609C372.728 181.258 371.904 181.957 370.531 181.957ZM372.153 178.574C372.041 177.688 371.604 177.001 370.531 177.001C369.644 177.001 368.945 177.65 368.795 178.587L372.153 178.574ZM374.553 181.907V176.09H375.59V177.051C375.977 176.427 376.763 176.003 377.537 176.04V177.039C376.476 177.001 375.59 177.925 375.59 178.949V181.907H374.553ZM384.447 176.09L382.013 181.907H381.064L378.643 176.09H379.779L381.539 180.497L383.299 176.09H384.447ZM387.781 181.957C386.145 181.957 384.997 180.734 384.997 179.024C384.997 177.301 386.145 176.09 387.781 176.09C389.578 176.09 390.128 177.538 390.178 177.675C390.527 178.574 390.415 179.436 390.415 179.473H386.046C386.195 180.397 386.919 181.046 387.781 181.046C388.929 181.046 389.354 180.322 389.441 180.185L390.265 180.609C389.978 181.258 389.154 181.957 387.781 181.957ZM389.404 178.574C389.291 177.688 388.854 177.001 387.781 177.001C386.894 177.001 386.195 177.65 386.046 178.587L389.404 178.574ZM394.412 181.982C392.789 181.982 391.641 180.759 391.641 179.024C391.641 177.301 392.789 176.078 394.412 176.078C395.037 176.078 395.773 176.365 396.26 177.101V173.094H397.296V181.907H396.26V180.959C395.761 181.67 395.037 181.982 394.412 181.982ZM394.462 181.071C395.423 181.071 396.26 180.16 396.26 179.024C396.26 177.913 395.423 176.989 394.462 176.989C393.401 176.989 392.677 177.825 392.677 179.024C392.677 180.235 393.401 181.071 394.462 181.071ZM399.679 180.721C400.066 180.721 400.341 180.996 400.341 181.395C400.341 181.795 400.066 182.082 399.679 182.082C399.28 182.082 398.993 181.795 398.993 181.395C398.993 180.996 399.28 180.721 399.679 180.721Z" fill="#A1A1A1"/>
<path d="M1756.29 172.277H1759.78V180.131C1759.78 181.327 1760.08 182.192 1760.68 182.724C1761.27 183.239 1762.14 183.496 1763.27 183.496H1766.51V166.044H1770V185.242H1763.27C1760.89 185.242 1759.13 184.818 1757.98 183.97C1756.85 183.106 1756.29 181.826 1756.29 180.131V172.277Z" fill="#121212"/>
<path d="M1746.45 179.507H1743.83V185.241H1740.34V171.945H1743.83V177.762H1746.45L1750.31 172.277H1754.05L1749.69 178.51L1754.3 185.241H1750.31L1746.45 179.507Z" fill="#121212"/>
<path d="M1730.5 179.507H1727.88V185.241H1724.39V171.945H1727.88V177.762H1730.5L1734.37 172.277H1738.1L1733.74 178.51L1738.35 185.241H1734.37L1730.5 179.507Z" fill="#121212"/>
<path d="M1715.17 183.995C1715.98 183.995 1716.74 183.853 1717.44 183.571C1718.15 183.288 1718.85 182.889 1719.53 182.374L1720.53 183.87C1720.21 184.152 1719.84 184.41 1719.41 184.643C1718.99 184.876 1718.54 185.075 1718.04 185.241C1717.56 185.391 1717.05 185.507 1716.52 185.59C1715.98 185.69 1715.45 185.74 1714.92 185.74C1713.74 185.74 1712.66 185.582 1711.68 185.266C1710.72 184.967 1709.89 184.526 1709.21 183.945C1708.53 183.346 1708 182.615 1707.62 181.751C1707.25 180.886 1707.07 179.889 1707.07 178.759C1707.07 177.645 1707.24 176.656 1707.59 175.792C1707.96 174.911 1708.46 174.18 1709.09 173.598C1709.74 173 1710.5 172.551 1711.38 172.252C1712.26 171.936 1713.23 171.778 1714.3 171.778C1715.29 171.778 1716.23 171.928 1717.11 172.227C1718 172.526 1718.76 172.966 1719.41 173.548C1720.06 174.113 1720.57 174.803 1720.95 175.618C1721.34 176.432 1721.53 177.354 1721.53 178.385V180.13H1710.88C1711.08 181.51 1711.56 182.499 1712.3 183.097C1713.07 183.695 1714.02 183.995 1715.17 183.995ZM1714.3 173.399C1713.82 173.399 1713.37 173.49 1712.95 173.673C1712.54 173.856 1712.17 174.147 1711.85 174.545C1711.56 174.944 1711.31 175.46 1711.11 176.091C1710.92 176.723 1710.82 177.487 1710.81 178.385H1717.79C1717.79 177.521 1717.69 176.773 1717.49 176.141C1717.29 175.51 1717.02 174.994 1716.69 174.595C1716.38 174.18 1716 173.881 1715.57 173.698C1715.15 173.498 1714.73 173.399 1714.3 173.399Z" fill="#121212"/>
<path d="M1700.72 183.496V174.022H1697.6C1697.04 174.022 1696.52 174.114 1696.03 174.296C1695.57 174.463 1695.16 174.737 1694.81 175.119C1694.48 175.501 1694.21 175.992 1694.01 176.59C1693.83 177.189 1693.74 177.912 1693.74 178.759C1693.74 179.607 1693.83 180.33 1694.01 180.928C1694.21 181.527 1694.48 182.017 1694.81 182.399C1695.16 182.782 1695.57 183.064 1696.03 183.247C1696.52 183.413 1697.04 183.496 1697.6 183.496H1700.72ZM1697.6 185.241C1696.46 185.241 1695.41 185.092 1694.46 184.793C1693.53 184.494 1692.73 184.061 1692.07 183.496C1691.4 182.931 1690.89 182.25 1690.52 181.452C1690.17 180.654 1690 179.756 1690 178.759C1690 177.762 1690.17 176.864 1690.52 176.067C1690.89 175.269 1691.4 174.587 1692.07 174.022C1692.73 173.457 1693.53 173.025 1694.46 172.726C1695.41 172.427 1696.46 172.277 1697.6 172.277H1700.72V165.712H1704.21V185.241H1697.6Z" fill="#121212"/>
<path d="M1704.21 161.556H1700.72V155.116V152H1769.91V162.388H1766.42V155.116H1704.21V161.556Z" fill="#121212"/>
<defs>
<clipPath id="clip0_1415_311">
<rect width="10" height="10" fill="white" transform="translate(218 82)"/>
</clipPath>
<clipPath id="clip1_1415_311">
<rect width="10" height="10" fill="white" transform="translate(333 82)"/>
</clipPath>
</defs>
</svg>
