<svg width="24" height="24" viewBox="0 0 24 24" fill="none" xmlns="http://www.w3.org/2000/svg">
<path d="M13 9.5C13 12.5376 10.7614 15 8 15C5.23858 15 3 12.5376 3 9.5C3 6.46243 5.23858 4 8 4C10.7614 4 13 6.46243 13 9.5Z" fill="#EC1010"/>
<path d="M21 9.5C21 12.5376 18.7614 15 16 15C13.2386 15 11 12.5376 11 9.5C11 6.46243 13.2386 4 16 4C18.7614 4 21 6.46243 21 9.5Z" fill="#EC1010"/>
<path d="M19 12.5C19 15.5376 15.866 19.5 12 19.5C8.13401 19.5 5 15.5376 5 12.5C5 9.46243 8.13401 7 12 7C15.866 7 19 9.46243 19 12.5Z" fill="#EC1010"/>
<path fill-rule="evenodd" clip-rule="evenodd" d="M7.81395 3C8.74695 2.9994 9.66636 3.23185 10.4944 3.67769C11.0559 3.98008 11.5643 4.37459 12.0005 4.84416C13.0573 3.70799 14.5422 3 16.186 3C19.3969 3 22 5.69888 22 9.02797C22 11.9581 20.3412 14.6637 18.3678 16.7299C16.3877 18.8032 13.9712 20.3598 12.22 20.9631C12.0772 21.0123 11.9228 21.0123 11.78 20.9631C10.0288 20.3598 7.61229 18.8032 5.63216 16.7299C3.65881 14.6637 2 11.9581 2 9.02797C2 5.69905 4.60279 3.00028 7.81346 3M9.85126 4.96159C9.22207 4.6228 8.52342 4.44619 7.81445 4.44671L7.81395 4.44671C5.37369 4.44671 3.39535 6.49788 3.39535 9.02797C3.39535 11.4024 4.75979 13.7604 6.62366 15.7119C8.39222 17.5637 10.5033 18.9357 12 19.51C13.4967 18.9357 15.6078 17.5637 17.3763 15.7119C19.2402 13.7604 20.6047 11.4024 20.6047 9.02797C20.6047 6.49788 18.6263 4.44671 16.186 4.44671C14.6923 4.44671 13.371 5.21473 12.5705 6.39371C12.4397 6.58631 12.2267 6.70084 11.9996 6.70069C11.7724 6.70054 11.5595 6.58573 11.429 6.39297C11.0216 5.79135 10.4804 5.30037 9.85126 4.96159Z" fill="black"/>
</svg>
